<svg width="1258" height="512" viewBox="0 0 1258 512" fill="none" xmlns="http://www.w3.org/2000/svg">
<path d="M44.8125 71.5C44.25 74.3125 43.3438 77.25 42.0938 80.3125C40.9062 83.3125 39.3438 86.0625 37.4062 88.5625C35.5312 91.0625 33.2812 93.0938 30.6562 94.6562C28.0312 96.2812 25.0312 97.0938 21.6562 97.0938C19.1562 97.0938 16.9062 96.5938 14.9062 95.5938C12.9062 94.5938 11.0938 93.25 9.46875 91.5625C7.84375 89.875 6.4375 87.9375 5.25 85.75C4.0625 83.5625 3.0625 81.3125 2.25 79C1.5 76.625 0.9375 74.2812 0.5625 71.9688C0.1875 69.6562 0 67.5 0 65.5C0 62.6875 0.25 59.6875 0.75 56.5C1.3125 53.25 2.125 50.0625 3.1875 46.9375C4.25 43.75 5.59375 40.7188 7.21875 37.8438C8.84375 34.9062 10.75 32.3438 12.9375 30.1562C15.1875 27.9062 17.6875 26.125 20.4375 24.8125C23.25 23.4375 26.375 22.75 29.8125 22.75C32 22.75 34.0312 23.1875 35.9062 24.0625C37.7812 24.875 39.4062 26 40.7812 27.4375C42.1562 28.8125 43.2188 30.4688 43.9688 32.4062C44.7812 34.3438 45.1875 36.375 45.1875 38.5V39.3438C45.1875 40.4688 45.125 41.875 45 43.5625C44.9375 45.1875 44.6562 46.75 44.1562 48.25C43.6562 49.75 42.9062 51.0625 41.9062 52.1875C40.9062 53.25 39.5 53.7812 37.6875 53.7812C35.5 53.7812 33.8438 53.2812 32.7188 52.2812C31.5938 51.2812 31.0312 49.625 31.0312 47.3125C31.0312 46.4375 31.0625 45.5625 31.125 44.6875C31.1875 43.8125 31.2188 42.9375 31.2188 42.0625C31.2188 40.75 31 39.75 30.5625 39.0625C30.125 38.3125 29.2188 37.9375 27.8438 37.9375C26.2812 37.9375 24.875 38.4375 23.625 39.4375C22.375 40.4375 21.2812 41.75 20.3438 43.375C19.4062 45 18.5938 46.8438 17.9062 48.9062C17.2188 50.9688 16.6562 53.0625 16.2188 55.1875C15.7812 57.25 15.4688 59.25 15.2812 61.1875C15.0938 63.125 15 64.7812 15 66.1562C15 67.2812 15.0625 68.5938 15.1875 70.0938C15.3125 71.5312 15.5625 72.9375 15.9375 74.3125C16.375 75.625 17 76.75 17.8125 77.6875C18.625 78.625 19.6875 79.0938 21 79.0938C23.25 79.0938 25.0625 78.4062 26.4375 77.0312C27.8125 75.5938 28.75 73.7812 29.25 71.5938C28.375 71.4688 27.5 71.2812 26.625 71.0312C25.8125 70.7188 25.0312 70.3125 24.2812 69.8125C23.5938 69.25 23.0312 68.5938 22.5938 67.8438C22.1562 67.0312 21.9375 66.0938 21.9375 65.0312C21.9375 63.0938 22.5938 61.5938 23.9062 60.5312C25.2188 59.4062 26.75 58.5625 28.5 58C30.3125 57.4375 32.1562 57.0938 34.0312 56.9688C35.9062 56.7812 37.4062 56.6875 38.5312 56.6875C39.3438 56.6875 40.5312 56.75 42.0938 56.875C43.6562 57 45.1875 57.2812 46.6875 57.7188C48.25 58.0938 49.5938 58.6562 50.7188 59.4062C51.8438 60.1562 52.4062 61.125 52.4062 62.3125C52.4062 64.6875 51.75 66.75 50.4375 68.5C49.1875 70.1875 47.3125 71.1875 44.8125 71.5ZM92.0625 77.3125C92.0625 79.4375 91.375 81.5312 90 83.5938C88.6875 85.5938 87 87.4062 84.9375 89.0312C82.9375 90.5938 80.7812 91.875 78.4688 92.875C76.1562 93.8125 74.0312 94.2812 72.0938 94.2812C68.7812 94.2812 65.8125 93.4688 63.1875 91.8438C60.625 90.1562 58.4688 88.0312 56.7188 85.4688C54.9688 82.9062 53.625 80.0938 52.6875 77.0312C51.8125 73.9062 51.375 70.875 51.375 67.9375C51.375 64.8125 51.8125 61.4688 52.6875 57.9062C53.5625 54.3438 54.875 51.0625 56.625 48.0625C58.4375 45.0625 60.6875 42.5625 63.375 40.5625C66.125 38.5625 69.375 37.5625 73.125 37.5625C75.25 37.5625 77.2812 37.9375 79.2188 38.6875C81.1562 39.375 82.8438 40.375 84.2812 41.6875C85.7188 43 86.875 44.5625 87.75 46.375C88.625 48.1875 89.0625 50.2188 89.0625 52.4688C89.0625 55.4062 88.4375 58.1562 87.1875 60.7188C85.9375 63.2812 84.2812 65.5 82.2188 67.375C80.1562 69.25 77.7812 70.7812 75.0938 71.9688C72.4062 73.0938 69.6562 73.7188 66.8438 73.8438C67.0938 75.6562 67.8125 76.9688 69 77.7812C70.25 78.5938 71.7188 79 73.4062 79C74.6562 79 75.875 78.6875 77.0625 78.0625C78.25 77.4375 79.4062 76.75 80.5312 76C81.6562 75.1875 82.75 74.4688 83.8125 73.8438C84.9375 73.2188 86.0625 72.9062 87.1875 72.9062C88.4375 72.9062 89.5625 73.3125 90.5625 74.125C91.5625 74.9375 92.0625 76 92.0625 77.3125ZM76.875 54.3438C76.875 53.5312 76.6562 52.6875 76.2188 51.8125C75.7812 50.9375 75.0938 50.5 74.1562 50.5C72.7812 50.5 71.625 50.875 70.6875 51.625C69.75 52.3125 68.9688 53.2188 68.3438 54.3438C67.7188 55.4062 67.2188 56.5625 66.8438 57.8125C66.5312 59.0625 66.3438 60.2188 66.2812 61.2812C67.1562 61.0938 68.1875 60.8438 69.375 60.5312C70.625 60.2188 71.7812 59.8125 72.8438 59.3125C73.9688 58.75 74.9062 58.0625 75.6562 57.25C76.4688 56.4375 76.875 55.4688 76.875 54.3438ZM122.438 96.625C121.375 96.625 120.531 96.125 119.906 95.125C119.281 94.1875 118.812 93.0938 118.5 91.8438C118.188 90.5938 117.969 89.3438 117.844 88.0938C117.781 86.7812 117.75 85.7812 117.75 85.0938C117.75 83.2188 117.844 81.3438 118.031 79.4688C118.281 77.5938 118.531 75.7188 118.781 73.8438C119.094 71.9688 119.344 70.0938 119.531 68.2188C119.781 66.3438 119.906 64.4688 119.906 62.5938C119.906 61.8438 119.875 61.0312 119.812 60.1562C119.75 59.2812 119.594 58.4688 119.344 57.7188C119.156 56.9062 118.812 56.25 118.312 55.75C117.812 55.25 117.156 55 116.344 55C115.781 55 115.156 55.4688 114.469 56.4062C113.781 57.2812 113.125 58.3125 112.5 59.5C111.938 60.625 111.438 61.7812 111 62.9688C110.625 64.0938 110.438 64.9375 110.438 65.5C110.438 66.875 110.438 68.2812 110.438 69.7188C110.5 71.0938 110.531 72.5 110.531 73.9375V79.375C110.469 80.5 110.375 81.6562 110.25 82.8438C110.125 84.0312 109.938 85.1875 109.688 86.3125C109.5 87.4375 109.219 88.5312 108.844 89.5938C108.469 90.5938 107.969 91.5 107.344 92.3125C106.781 93.0625 106.094 93.6875 105.281 94.1875C104.469 94.6875 103.5 94.9375 102.375 94.9375C101.125 94.9375 100.094 94.5312 99.2812 93.7188C98.4688 92.9062 97.8125 91.875 97.3125 90.625C96.8125 89.3125 96.4375 87.875 96.1875 86.3125C96 84.6875 95.8438 83.125 95.7188 81.625C95.6562 80.0625 95.625 78.6562 95.625 77.4062C95.6875 76.0938 95.7188 75.0625 95.7188 74.3125V69.9062C95.7188 67.5312 95.6562 65.1875 95.5312 62.875C95.4688 60.5625 95.4375 58.25 95.4375 55.9375C95.4375 54.6875 95.4375 53.0938 95.4375 51.1562C95.5 49.2188 95.75 47.3438 96.1875 45.5312C96.625 43.6562 97.3438 42.0625 98.3438 40.75C99.3438 39.4375 100.812 38.7812 102.75 38.7812C103.625 38.7812 104.406 39.0625 105.094 39.625C105.781 40.1875 106.375 40.875 106.875 41.6875C107.438 42.5 107.875 43.375 108.188 44.3125C108.562 45.25 108.844 46.0625 109.031 46.75C109.656 45.875 110.375 45.0312 111.188 44.2188C112.062 43.4062 113.031 42.6875 114.094 42.0625C115.156 41.4375 116.344 40.9375 117.656 40.5625C118.969 40.1875 120.469 40 122.156 40C125.344 40 127.812 40.7812 129.562 42.3438C131.375 43.8438 132.688 45.75 133.5 48.0625C134.375 50.3125 134.906 52.75 135.094 55.375C135.281 58 135.375 60.375 135.375 62.5C135.375 63.5625 135.281 65.1562 135.094 67.2812C134.906 69.3438 134.594 71.6562 134.156 74.2188C133.781 76.7188 133.25 79.3125 132.562 82C131.875 84.625 131.062 87.0312 130.125 89.2188C129.188 91.4062 128.062 93.1875 126.75 94.5625C125.5 95.9375 124.062 96.625 122.438 96.625ZM179.906 77.3125C179.906 79.4375 179.219 81.5312 177.844 83.5938C176.531 85.5938 174.844 87.4062 172.781 89.0312C170.781 90.5938 168.625 91.875 166.312 92.875C164 93.8125 161.875 94.2812 159.938 94.2812C156.625 94.2812 153.656 93.4688 151.031 91.8438C148.469 90.1562 146.312 88.0312 144.562 85.4688C142.812 82.9062 141.469 80.0938 140.531 77.0312C139.656 73.9062 139.219 70.875 139.219 67.9375C139.219 64.8125 139.656 61.4688 140.531 57.9062C141.406 54.3438 142.719 51.0625 144.469 48.0625C146.281 45.0625 148.531 42.5625 151.219 40.5625C153.969 38.5625 157.219 37.5625 160.969 37.5625C163.094 37.5625 165.125 37.9375 167.062 38.6875C169 39.375 170.688 40.375 172.125 41.6875C173.562 43 174.719 44.5625 175.594 46.375C176.469 48.1875 176.906 50.2188 176.906 52.4688C176.906 55.4062 176.281 58.1562 175.031 60.7188C173.781 63.2812 172.125 65.5 170.062 67.375C168 69.25 165.625 70.7812 162.938 71.9688C160.25 73.0938 157.5 73.7188 154.688 73.8438C154.938 75.6562 155.656 76.9688 156.844 77.7812C158.094 78.5938 159.562 79 161.25 79C162.5 79 163.719 78.6875 164.906 78.0625C166.094 77.4375 167.25 76.75 168.375 76C169.5 75.1875 170.594 74.4688 171.656 73.8438C172.781 73.2188 173.906 72.9062 175.031 72.9062C176.281 72.9062 177.406 73.3125 178.406 74.125C179.406 74.9375 179.906 76 179.906 77.3125ZM164.719 54.3438C164.719 53.5312 164.5 52.6875 164.062 51.8125C163.625 50.9375 162.938 50.5 162 50.5C160.625 50.5 159.469 50.875 158.531 51.625C157.594 52.3125 156.812 53.2188 156.188 54.3438C155.562 55.4062 155.062 56.5625 154.688 57.8125C154.375 59.0625 154.188 60.2188 154.125 61.2812C155 61.0938 156.031 60.8438 157.219 60.5312C158.469 60.2188 159.625 59.8125 160.688 59.3125C161.812 58.75 162.75 58.0625 163.5 57.25C164.312 56.4375 164.719 55.4688 164.719 54.3438ZM216.188 58.9375C215.312 59 214.562 58.9375 213.938 58.75C213.312 58.5 212.688 58.25 212.062 58C211.5 57.75 210.938 57.5312 210.375 57.3438C209.812 57.0938 209.188 57 208.5 57.0625C207.25 57.125 206.125 57.4688 205.125 58.0938C204.188 58.7188 203.312 59.5 202.5 60.4375C201.75 61.375 201.094 62.4375 200.531 63.625C199.969 64.75 199.531 65.875 199.219 67C199.031 67.75 198.875 68.9062 198.75 70.4688C198.688 71.9688 198.656 73.5938 198.656 75.3438C198.594 77.1562 198.562 78.875 198.562 80.5C198.562 82.125 198.5 83.4062 198.375 84.3438C198.312 85.3438 198.156 86.5312 197.906 87.9062C197.656 89.2188 197.25 90.4688 196.688 91.6562C196.188 92.8438 195.5 93.8438 194.625 94.6562C193.75 95.4688 192.625 95.875 191.25 95.875C190.188 95.875 189.25 95.5625 188.438 94.9375C187.688 94.3125 187.031 93.5 186.469 92.5C185.969 91.4375 185.531 90.2188 185.156 88.8438C184.844 87.4688 184.594 86.0625 184.406 84.625C184.219 83.125 184.062 81.625 183.938 80.125C183.875 78.625 183.812 77.2188 183.75 75.9062C183.75 74.5312 183.75 73.2812 183.75 72.1562C183.812 71.0312 183.844 70.125 183.844 69.4375C183.781 67.25 183.656 65.0625 183.469 62.875C183.344 60.625 183.281 58.4062 183.281 56.2188C183.281 54.8438 183.344 53.3125 183.469 51.625C183.594 49.9375 183.938 48.375 184.5 46.9375C185.062 45.4375 185.875 44.1875 186.938 43.1875C188.062 42.1875 189.594 41.6875 191.531 41.6875C192.594 41.6875 193.5 42.0312 194.25 42.7188C195 43.4062 195.594 44.25 196.031 45.25C196.531 46.25 196.906 47.3125 197.156 48.4375C197.406 49.5625 197.562 50.5938 197.625 51.5312C199.125 49.0938 200.812 47.125 202.688 45.625C204.562 44.0625 207 43.2188 210 43.0938C211.5 43.0312 212.969 43.1875 214.406 43.5625C215.906 43.875 217.25 44.4375 218.438 45.25C219.688 46 220.688 47 221.438 48.25C222.25 49.5 222.688 50.9688 222.75 52.6562C222.875 54.6562 222.281 56.1875 220.969 57.25C219.656 58.3125 218.062 58.875 216.188 58.9375ZM241.969 96.7188C238.781 96.7188 236 95.875 233.625 94.1875C231.25 92.5 229.25 90.3438 227.625 87.7188C226 85.0938 224.781 82.1875 223.969 79C223.156 75.75 222.75 72.5625 222.75 69.4375C222.75 66.125 223.156 62.7188 223.969 59.2188C224.781 55.6562 226.031 52.4375 227.719 49.5625C229.406 46.625 231.562 44.25 234.188 42.4375C236.812 40.5625 239.938 39.625 243.562 39.625C247.062 39.625 250.031 40.5938 252.469 42.5312C254.969 44.4062 256.969 46.7812 258.469 49.6562C259.969 52.4688 261.031 55.5625 261.656 58.9375C262.281 62.3125 262.5 65.5 262.312 68.5C262.125 71.8125 261.594 75.1562 260.719 78.5312C259.906 81.9062 258.688 84.9375 257.062 87.625C255.438 90.3125 253.375 92.5 250.875 94.1875C248.375 95.875 245.406 96.7188 241.969 96.7188ZM242.906 54.3438C241.969 54.3438 241.125 54.8438 240.375 55.8438C239.688 56.8438 239.094 58.0625 238.594 59.5C238.156 60.9375 237.812 62.4688 237.562 64.0938C237.312 65.6562 237.188 67.0312 237.188 68.2188C237.188 69.7188 237.312 71.3438 237.562 73.0938C237.875 74.8438 238.281 76.4688 238.781 77.9688C239.281 79.4062 239.875 80.625 240.562 81.625C241.312 82.5625 242.156 83.0312 243.094 83.0312C244.094 83.0312 244.938 82.5625 245.625 81.625C246.375 80.6875 246.969 79.5 247.406 78.0625C247.844 76.625 248.156 75.0625 248.344 73.375C248.531 71.625 248.625 70 248.625 68.5C248.625 67.125 248.5 65.625 248.25 64C248 62.3125 247.625 60.75 247.125 59.3125C246.688 57.875 246.094 56.6875 245.344 55.75C244.656 54.8125 243.844 54.3438 242.906 54.3438ZM294.562 42.4375C294.562 44.25 293.938 45.5938 292.688 46.4688C291.5 47.3438 290.156 48.1875 288.656 49C287.156 49.75 285.781 50.6562 284.531 51.7188C283.344 52.7812 282.75 54.375 282.75 56.5C282.75 57.625 283 58.5938 283.5 59.4062C284.062 60.2188 284.719 60.9688 285.469 61.6562C286.281 62.2812 287.156 62.9375 288.094 63.625C289.031 64.3125 289.875 65.0938 290.625 65.9688C291.438 66.8438 292.094 67.9062 292.594 69.1562C293.156 70.4062 293.438 71.9375 293.438 73.75C293.438 76.375 292.75 78.9688 291.375 81.5312C290.062 84.0312 288.344 86.2812 286.219 88.2812C284.156 90.2188 281.812 91.7812 279.188 92.9688C276.562 94.1562 273.969 94.75 271.406 94.75C270.344 94.75 269.281 94.6562 268.219 94.4688C267.156 94.3438 266.188 94.0625 265.312 93.625C264.5 93.1875 263.812 92.5938 263.25 91.8438C262.688 91.0312 262.406 90 262.406 88.75C262.406 87 262.75 85.6562 263.438 84.7188C264.125 83.7188 265 82.9375 266.062 82.375C267.125 81.8125 268.25 81.375 269.438 81.0625C270.688 80.75 271.844 80.375 272.906 79.9375C273.969 79.4375 274.844 78.8125 275.531 78.0625C276.219 77.3125 276.562 76.25 276.562 74.875C276.562 73.5625 276.031 72.2188 274.969 70.8438C273.969 69.4062 272.844 67.9062 271.594 66.3438C270.344 64.7188 269.188 63 268.125 61.1875C267.125 59.375 266.625 57.375 266.625 55.1875C266.625 52.5 267.156 50.0312 268.219 47.7812C269.344 45.4688 270.812 43.4688 272.625 41.7812C274.5 40.0938 276.625 38.7812 279 37.8438C281.375 36.8438 283.875 36.3438 286.5 36.3438C287.5 36.3438 288.469 36.4375 289.406 36.625C290.406 36.8125 291.281 37.1562 292.031 37.6562C292.781 38.0938 293.375 38.7188 293.812 39.5312C294.312 40.2812 294.562 41.25 294.562 42.4375ZM313.781 28.5625C313.781 29.4375 313.531 30.2187 313.031 30.9062C312.594 31.5938 312 32.2188 311.25 32.7812C310.5 33.2812 309.688 33.6875 308.812 34C307.938 34.25 307.125 34.375 306.375 34.375C305.125 34.375 304.031 34.0625 303.094 33.4375C302.156 32.8125 301.688 31.8438 301.688 30.5312C301.688 29.5938 301.906 28.7813 302.344 28.0938C302.844 27.3438 303.438 26.75 304.125 26.3125C304.812 25.8125 305.594 25.4375 306.469 25.1875C307.344 24.9375 308.188 24.8125 309 24.8125C310.188 24.8125 311.281 25.0938 312.281 25.6562C313.281 26.2188 313.781 27.1875 313.781 28.5625ZM314.531 60.4375C314.531 61.3125 314.531 62.25 314.531 63.25C314.531 64.1875 314.5 65.0938 314.438 65.9688C314.375 67.0312 314.344 68.4688 314.344 70.2812C314.344 72.0312 314.281 73.9375 314.156 76C314.031 78.0625 313.812 80.1562 313.5 82.2812C313.25 84.4062 312.812 86.3438 312.188 88.0938C311.562 89.8438 310.719 91.2812 309.656 92.4062C308.656 93.4688 307.375 94.0312 305.812 94.0938C304.625 94.1562 303.625 93.6875 302.812 92.6875C302 91.6875 301.312 90.4062 300.75 88.8438C300.25 87.2188 299.875 85.4375 299.625 83.5C299.375 81.5 299.188 79.5938 299.062 77.7812C298.938 75.9062 298.875 74.1875 298.875 72.625C298.875 71.0625 298.875 69.9062 298.875 69.1562C298.875 68.1562 298.875 66.75 298.875 64.9375C298.875 63.0625 298.938 61.0625 299.062 58.9375C299.188 56.8125 299.406 54.6562 299.719 52.4688C300.094 50.2812 300.594 48.2812 301.219 46.4688C301.906 44.6562 302.781 43.1875 303.844 42.0625C304.906 40.9375 306.25 40.375 307.875 40.375C309.562 40.375 310.844 41.2188 311.719 42.9062C312.594 44.5938 313.25 46.5625 313.688 48.8125C314.125 51.0625 314.375 53.3125 314.438 55.5625C314.5 57.75 314.531 59.375 314.531 60.4375Z" transform="translate(3.02959 130.272) scale(3.02959)" fill="#5B2C01"/>
<path d="M23.1562 121.281C21.6562 121.281 19.9375 121.031 18 120.531C16.125 120.094 14.3438 119.438 12.6562 118.562C10.9688 117.688 9.53125 116.625 8.34375 115.375C7.21875 114.125 6.65625 112.688 6.65625 111.062C6.65625 110.438 6.8125 109.812 7.125 109.188C7.4375 108.562 7.84375 108 8.34375 107.5C8.90625 107.062 9.5 106.688 10.125 106.375C10.75 106.125 11.4062 106 12.0938 106C12.8438 106 13.5625 106.094 14.25 106.281C15 106.531 15.75 106.812 16.5 107.125C17.3125 107.438 18.0938 107.719 18.8438 107.969C19.6562 108.219 20.5 108.344 21.375 108.344C22.9375 108.344 24.2812 107.812 25.4062 106.75C26.5938 105.688 27.5938 104.281 28.4062 102.531C29.2188 100.844 29.875 98.9375 30.375 96.8125C30.875 94.75 31.25 92.6875 31.5 90.625C31.8125 88.5625 32.0312 86.625 32.1562 84.8125C32.2812 83 32.375 81.5312 32.4375 80.4062C30.25 83.7188 28.0625 86.2812 25.875 88.0938C23.75 89.8438 21.125 90.7188 18 90.7188C15.625 90.7188 13.5312 90.2188 11.7188 89.2188C9.96875 88.2188 8.46875 86.9062 7.21875 85.2812C5.96875 83.6562 4.9375 81.8125 4.125 79.75C3.3125 77.625 2.6875 75.4375 2.25 73.1875C1.875 70.9375 1.625 68.75 1.5 66.625C1.375 64.4375 1.375 62.4375 1.5 60.625C1.5625 59.25 1.71875 57.4688 1.96875 55.2812C2.28125 53.0312 2.75 50.8438 3.375 48.7188C4 46.5938 4.875 44.8125 6 43.375C7.125 41.875 8.59375 41.1875 10.4062 41.3125C11.5938 41.375 12.5625 41.9062 13.3125 42.9062C14.0625 43.8438 14.6562 45.0312 15.0938 46.4688C15.5938 47.9062 15.9375 49.5 16.125 51.25C16.375 52.9375 16.5312 54.625 16.5938 56.3125C16.6562 58 16.6562 59.5625 16.5938 61C16.5938 62.375 16.5938 63.4375 16.5938 64.1875C16.5938 65.25 16.625 66.3125 16.6875 67.375C16.75 68.4375 16.9688 69.4062 17.3438 70.2812C17.7188 71.0938 18.2812 71.75 19.0312 72.25C19.8438 72.75 20.9688 73 22.4062 73C24.0312 73 25.3125 72.5938 26.25 71.7812C27.25 70.9688 27.9688 69.9688 28.4062 68.7812C28.9062 67.5312 29.2188 66.2188 29.3438 64.8438C29.4688 63.4062 29.5312 62.0625 29.5312 60.8125C29.5312 59.9375 29.5312 58.875 29.5312 57.625C29.5312 56.375 29.5312 55.0625 29.5312 53.6875C29.5938 52.3125 29.7188 50.9688 29.9062 49.6562C30.1562 48.2812 30.5 47.0625 30.9375 46C31.4375 44.875 32.0625 43.9688 32.8125 43.2812C33.625 42.5938 34.6562 42.25 35.9062 42.25C37.4688 42.25 38.8125 42.875 39.9375 44.125C41.0625 45.3125 42 46.9062 42.75 48.9062C43.5625 50.8438 44.1875 53 44.625 55.375C45.125 57.75 45.5 60.125 45.75 62.5C46 64.8125 46.1562 66.9688 46.2188 68.9688C46.3438 70.9062 46.4062 72.4375 46.4062 73.5625C46.4062 76.1875 46.3125 79.1875 46.125 82.5625C45.9375 85.875 45.5625 89.3125 45 92.875C44.5 96.375 43.7188 99.8125 42.6562 103.188C41.5938 106.625 40.1875 109.688 38.4375 112.375C36.75 115.062 34.6562 117.219 32.1562 118.844C29.6562 120.469 26.6562 121.281 23.1562 121.281Z" transform="translate(1078.53 130.272) scale(3.02959)" fill="#5B2C01"/>
<path d="M14.8123 0C1.59536 17.8635 4.98658 27.232 18.8122 46.5C25.9965 58.4736 24.8673 67.8124 19.539 88.6796C19.0749 90.4972 18.0054 92.1593 16.3261 92.9954C12.8758 94.7133 9.21792 95.1553 6.31408 94.4469C3.0756 93.657 3.10107 89.7293 4.90208 86.9243C18.9089 65.1091 13.1031 52.9839 3.77409 38C-6.22591 19 5.81225 7.5 14.8123 0Z" transform="translate(977.726 130.272) scale(3.02959)" fill="#5B2C01"/>
<path fill-rule="evenodd" clip-rule="evenodd" d="M52.4635 14.3975C40.5561 4.29691 27.0603 -3.15969 0 1.34031C1.18484 3.70999 2.33379 6.05837 3.46608 8.3727C10.4568 22.6614 16.8127 35.6524 27.0603 44.345C38.9677 54.4456 54.3073 55.9297 61.3222 47.6599C62.1372 46.6991 62.804 45.6489 63.3273 44.5272C63.0344 44.3505 62.7085 43.8522 62.1821 43.0477C61.0403 41.3023 58.9556 38.1154 54.2198 33.6428C53.2813 32.8467 52.2943 31.9943 51.2607 31.1015C45.6786 26.2803 38.7355 20.2834 30.7198 15.6428C44.1348 15.6428 51.5757 21.9827 57.4586 26.9952C57.7152 27.2138 57.9688 27.4299 58.2198 27.6428C61.3142 30.2677 63.609 32.8421 64.6965 35.6101C64.0238 28.4813 59.7171 20.5503 52.4635 14.3975Z" transform="translate(793.751 18.1776) scale(3.02959)" fill="#B3D335"/>
<path fill-rule="evenodd" clip-rule="evenodd" d="M54.2612 15.7811C41.3917 3.27592 28.9178 -4.71785 0 3.09349C1.18483 5.73192 2.33378 8.34665 3.46606 10.9235C10.4568 26.8328 16.8127 41.2972 27.0603 50.9757C38.9677 62.2219 55.8743 62.9803 62.8892 53.7726C63.6973 52.7119 64.3627 51.5407 64.8894 50.2813C64.5978 50.0816 64.2726 49.528 63.7492 48.6372C62.6074 46.6939 60.5226 43.1456 55.7868 38.1657C54.8483 37.2793 53.8613 36.3301 52.8277 35.3361C47.2456 29.9681 40.3025 23.2911 32.2868 18.1241C45.7018 18.1241 53.1427 25.1831 59.0256 30.7641C59.2822 31.0075 59.5358 31.2481 59.7868 31.4851C63.0004 34.5202 65.3515 37.4948 66.3837 40.7131C65.9676 32.3283 61.7158 22.8217 54.2612 15.7811Z" transform="translate(1256.99 63.1775) scale(-3.02959 3.02959) rotate(-18.3086)" fill="#58962F"/>
</svg>
