<svg width="512" height="512" viewBox="0 0 512 512" fill="none" xmlns="http://www.w3.org/2000/svg">
<mask id="mask0" mask-type="alpha" maskUnits="userSpaceOnUse" x="0" y="0" width="513" height="512">
<circle cx="195.5" cy="195.5" r="195.5" transform="scale(1.30946)" fill="#C4C4C4"/>
</mask>
<g mask="url(#mask0)">
<path d="M35.5 134.93L23 115.43C57.4801 133.796 92 150.93 178 173.93C182.858 164.562 135.432 79.4661 105 37.9296L119.5 28.9296C127.32 37.0988 150.768 79.1683 160 93.9296C155.753 99.8458 147.205 -0.433606 160 5.92963C162.526 10.3464 166.522 -3.63851 169 0.92964C161.295 7.22868 164.566 109.089 174.097 115.43C190.205 147.223 203.372 178.598 207 194.93C210.687 167.256 216.832 94.5996 241.176 49.9296C242.891 46.7822 236.599 5.77368 238.5 2.92964C240.271 0.28001 242.058 3.27313 244 0.92964C246.099 -1.60325 245.69 43.5547 248 41.4296C250.45 39.1751 263.8 22.1647 266.5 20.4296L281 28.9296C234.097 68.6928 226.299 165.071 230.5 189.93C263.644 145.529 284.138 125.47 328.5 109.43H357C155.834 205.893 207 401.43 434.5 200.43C269 431.93 105 395.93 0 229.93C198 335.43 207.907 279.28 169 206.853C152.337 175.833 92.1628 166.33 35.5 134.93Z" transform="translate(-5.23785 59.6727) scale(1.30946)" fill="#622900"/>
<path fill-rule="evenodd" clip-rule="evenodd" d="M8.33784 32.4607C7.75642 31.754 7.12629 30.988 6.4347 30.1513C-2.53264 18.6771 -2.08166 5.13138 7.50129 1.06823C14.4651 -1.88441 22.9543 1.47176 29.3009 8.81805C35.9592 1.67454 44.6277 -1.36547 51.4938 1.8908C60.8997 6.35152 62.1369 18.3184 51.3515 30.9932C50.6258 31.8003 49.9644 32.5391 49.3542 33.2208C42.3949 40.9953 42.0905 41.3354 28.9553 50.5312C28.8075 50.6898 28.6593 50.8461 28.5108 51C28.4389 50.9451 28.3673 50.8904 28.2962 50.8361C26.657 50.0366 25.232 48.9268 24.0313 47.5672C15.105 40.686 14.1973 39.5827 8.33784 32.4607Z" transform="translate(374.506 242.251) scale(1.30946)" fill="#A3DC2C"/>
<path fill-rule="evenodd" clip-rule="evenodd" d="M12.86 50.2822C11.9633 49.1875 10.9914 48.0011 9.9247 46.705C-3.90623 28.9312 -3.21074 7.94862 11.5698 1.65471C22.3106 -2.919 35.4041 2.27982 45.1929 13.6594C55.4625 2.59392 68.8327 -2.11514 79.4228 2.92888C93.9302 9.83865 95.8384 28.3756 79.2033 48.0092C78.0839 49.2593 77.0638 50.4038 76.1226 51.4598C65.3889 63.5026 64.9193 64.0294 44.6599 78.2738C44.432 78.5196 44.2033 78.7617 43.9743 79C43.8633 78.9149 43.7529 78.8302 43.6432 78.746C41.1151 77.5076 38.9173 75.7886 37.0654 73.6827C23.2975 63.0235 21.8975 61.3144 12.86 50.2822Z" transform="translate(369.269 130.946) scale(1.30946)" fill="#7CC648"/>
<path fill-rule="evenodd" clip-rule="evenodd" d="M6.92465 27.3688C6.4418 26.773 5.91842 26.1272 5.34408 25.4217C-2.10337 15.7474 -1.72885 4.32647 6.22989 0.900663C12.0134 -1.58882 19.0637 1.2409 24.3347 7.43485C29.8645 1.41189 37.0637 -1.15126 42.7661 1.59422C50.5778 5.35523 51.6053 15.445 42.648 26.1316C42.0453 26.812 41.4959 27.435 40.9891 28.0098C35.2094 34.5647 34.9566 34.8515 24.0475 42.6048C23.9248 42.7386 23.8017 42.8703 23.6784 43C23.6187 42.9537 23.5592 42.9076 23.5001 42.8617C22.1389 42.1876 20.9555 41.2521 19.9585 40.1059C12.5448 34.304 11.7909 33.3737 6.92465 27.3688Z" transform="translate(301.176 216.061) scale(1.30946)" fill="#A3DC2C"/>
<path fill-rule="evenodd" clip-rule="evenodd" d="M8.33778 32.4606C7.75639 31.754 7.12626 30.988 6.4347 30.1513C-2.53261 18.6771 -2.08169 5.13138 7.50129 1.06823C14.4651 -1.88442 22.9543 1.47178 29.3009 8.81809C35.9592 1.67457 44.6278 -1.36546 51.4939 1.89081C60.8998 6.35155 62.137 18.3184 51.3516 30.9933C50.6259 31.8003 49.9645 32.5391 49.3543 33.2208C42.395 40.9954 42.0905 41.3354 28.9551 50.5313C28.8074 50.6899 28.6592 50.8462 28.5108 51C28.4388 50.945 28.3672 50.8904 28.296 50.836C26.6571 50.0365 25.2322 48.9268 24.0316 47.5674C15.1049 40.686 14.1973 39.5828 8.33778 32.4606Z" transform="translate(280.225 142.731) scale(1.30946)" fill="#329E2F"/>
<path fill-rule="evenodd" clip-rule="evenodd" d="M4.66356 18.4581C4.33836 18.0562 3.98589 17.6207 3.59905 17.1449C-1.41655 10.6203 -1.16432 2.91785 4.19563 0.607423C8.09062 -1.07153 12.8389 0.8369 16.3887 5.01421C20.1128 0.952211 24.9613 -0.776442 28.8017 1.07517C34.0626 3.61167 34.7546 10.4164 28.7221 17.6236C28.3161 18.0825 27.9462 18.5027 27.6049 18.8903C23.7124 23.3111 23.5422 23.5045 16.1953 28.7335C16.1127 28.8237 16.0298 28.9125 15.9467 29C15.9064 28.9688 15.8664 28.9377 15.8266 28.9068C14.9099 28.4522 14.1129 27.8212 13.4414 27.0481C8.44856 23.1352 7.94087 22.5078 4.66356 18.4581Z" transform="translate(243.56 222.609) scale(1.30946)" fill="#329E2F"/>
<path fill-rule="evenodd" clip-rule="evenodd" d="M8.90316 35.0067C8.28231 34.2445 7.6094 33.4185 6.87094 32.5161C-2.70432 20.142 -2.22281 5.53385 8.00985 1.15201C15.4458 -2.03222 24.5106 1.58722 31.2874 9.50972C38.3971 1.8059 47.6534 -1.47257 54.9851 2.0391C65.0286 6.84969 66.3497 19.7552 54.833 33.4241C54.0581 34.2944 53.3519 35.0913 52.7003 35.8265C45.2693 44.2107 44.9442 44.5774 30.9184 54.4944C30.7606 54.6655 30.6023 54.8341 30.4438 55C30.367 54.9408 30.2906 54.8818 30.2146 54.8232C28.4644 53.961 26.9427 52.7642 25.6607 51.298C16.1291 43.8771 15.1598 42.6873 8.90316 35.0067Z" transform="translate(331.294 53.688) scale(1.30946)" fill="#7CC648"/>
<path fill-rule="evenodd" clip-rule="evenodd" d="M12.2948 47.7363C11.4374 46.6971 10.5082 45.5707 9.48844 44.3402C-3.73452 27.4663 -3.06961 7.54616 11.0612 1.57092C21.3299 -2.77119 33.8479 2.16438 43.2064 12.9677C53.0246 2.46257 65.807 -2.00804 75.9316 2.78059C89.8013 9.34049 91.6257 26.9389 75.7217 45.5783C74.6516 46.7652 73.6763 47.8518 72.7764 48.8544C62.5146 60.2873 62.0656 60.7875 42.6969 74.3105C42.4789 74.5438 42.2603 74.7737 42.0413 75C41.9353 74.9192 41.8299 74.8389 41.725 74.759C39.3079 73.5832 37.2065 71.9512 35.436 69.9518C22.2734 59.8324 20.9349 58.2099 12.2948 47.7363Z" transform="translate(185.944 85.1151) scale(1.30946)" fill="#A3DC2C"/>
<path fill-rule="evenodd" clip-rule="evenodd" d="M7.77258 30.5513C7.23059 29.8861 6.64313 29.1652 5.99841 28.3777C-2.3609 17.5785 -1.94055 4.82954 6.99274 1.00539C13.4844 -1.77357 21.3981 1.38521 27.3144 8.29937C33.5212 1.57606 41.6022 -1.28513 48.0027 1.77959C56.7709 5.97792 57.9243 17.2409 47.8701 29.1701C47.1935 29.9297 46.577 30.6251 46.0081 31.2668C39.5207 38.5839 39.2369 38.904 26.9921 47.5589C26.8544 47.7082 26.7162 47.8552 26.5778 48C26.5107 47.9483 26.4441 47.8968 26.3777 47.8456C24.8498 47.0932 23.5215 46.0488 22.4022 44.7692C14.0809 38.2928 13.2347 37.2543 7.77258 30.5513Z" transform="translate(261.893 14.4041) scale(1.30946)" fill="#A3DC2C"/>
<path fill-rule="evenodd" clip-rule="evenodd" d="M4.66366 18.4582C4.3384 18.0563 3.98592 17.6207 3.59908 17.1449C-1.41654 10.6203 -1.16434 2.91785 4.19564 0.607426C8.09066 -1.07153 12.8389 0.836887 16.3887 5.01421C20.1128 0.952198 24.9613 -0.77644 28.8017 1.07517C34.0626 3.61167 34.7546 10.4164 28.7221 17.6236C28.3162 18.0825 27.9463 18.5026 27.6049 18.8902C23.7125 23.3111 23.5422 23.5044 16.1955 28.7333C16.1128 28.8236 16.0298 28.9125 15.9467 29C15.9065 28.9688 15.8665 28.9377 15.8267 28.9068C14.9099 28.4522 14.1129 27.8212 13.4413 27.0481C8.44863 23.1353 7.94088 22.5078 4.66366 18.4582Z" transform="translate(322.128 289.391) scale(1.30946)" fill="#329E2F"/>
<path fill-rule="evenodd" clip-rule="evenodd" d="M6.07679 24.1864C5.65302 23.6599 5.19373 23.0892 4.6897 22.4657C-1.84582 13.9163 -1.51715 3.82338 5.46705 0.795932C10.5424 -1.40407 16.7294 1.09661 21.3549 6.57032C26.2076 1.24771 32.5253 -1.01739 37.5294 1.40883C44.3845 4.73252 45.2862 13.649 37.4257 23.093C36.8967 23.6944 36.4147 24.245 35.9699 24.7529C30.898 30.5455 30.676 30.799 21.1031 37.6506C20.9954 37.7688 20.8873 37.8853 20.7791 38C20.7267 37.9591 20.6746 37.9184 20.6228 37.8779C19.4281 37.2822 18.3894 36.4552 17.5143 35.4422C11.0087 30.3151 10.3471 29.493 6.07679 24.1864Z" transform="translate(72.0205 263.202) scale(1.30946)" fill="#A3DC2C"/>
<path fill-rule="evenodd" clip-rule="evenodd" d="M8.47911 33.0971C7.88786 32.3766 7.24702 31.5957 6.54375 30.7425C-2.57555 19.0433 -2.11696 5.23201 7.62843 1.08917C14.7103 -1.92137 23.3434 1.50065 29.7976 8.991C36.5687 1.7074 45.3842 -1.39223 52.3667 1.92788C61.932 6.47609 63.1901 18.6776 52.2219 31.601C51.4839 32.4238 50.8113 33.1772 50.1907 33.8723C43.1135 41.7992 42.804 42.1459 29.446 51.5221C29.2957 51.6838 29.145 51.8431 28.994 52C28.9209 51.944 28.8482 51.8883 28.7758 51.8329C27.1089 51.0177 25.6597 49.8862 24.4387 48.4999C15.361 41.4838 14.4379 40.3589 8.47911 33.0971Z" transform="translate(130.946 222.609) scale(1.30946)" fill="#329E2F"/>
<path fill-rule="evenodd" clip-rule="evenodd" d="M7.06593 27.3688C6.57323 26.773 6.0392 26.1272 5.45314 25.4217C-2.14629 15.7474 -1.76414 4.32647 6.35704 0.900662C12.2586 -1.58882 19.4528 1.24091 24.8313 7.43484C30.4739 1.41188 37.8201 -1.15126 43.6389 1.59422C51.6099 5.35523 52.6584 15.445 43.5183 26.1316C42.9033 26.812 42.3428 27.435 41.8256 28.0097C35.928 34.5647 35.67 34.8514 24.5384 42.6047C24.4132 42.7385 24.2876 42.8703 24.1617 43C24.1007 42.9537 24.0401 42.9076 23.9798 42.8618C22.5907 42.1877 21.383 41.252 20.3655 40.1057C12.8008 34.3039 12.0316 33.3737 7.06593 27.3688Z" transform="translate(136.184 153.207) scale(1.30946)" fill="#329E2F"/>
<path fill-rule="evenodd" clip-rule="evenodd" d="M10.175 39.462C9.4655 38.6029 8.69649 37.6718 7.85252 36.6546C-3.09065 22.7055 -2.54036 6.23816 9.15413 1.29863C17.6523 -2.29085 28.0121 1.78922 35.7571 10.72C43.8824 2.03573 54.461 -1.65998 62.84 2.29862C74.3183 7.72148 75.8281 22.2695 62.6663 37.6781C61.7807 38.6592 60.9735 39.5575 60.2288 40.3863C51.7362 49.8375 51.3647 50.251 35.3353 61.43C35.155 61.6229 34.9741 61.8129 34.7928 62C34.7051 61.9332 34.6178 61.8668 34.531 61.8007C32.5307 60.8287 30.7917 59.4797 29.3264 57.8269C18.4332 49.4615 17.3255 48.1202 10.175 39.462Z" transform="translate(77.2583 69.4015) scale(1.30946)" fill="#A3DC2C"/>
<path fill-rule="evenodd" clip-rule="evenodd" d="M8.05506 31.824C7.49341 31.1313 6.88465 30.3804 6.21656 29.5601C-2.44677 18.3109 -2.0111 5.03077 7.24701 1.04728C13.9747 -1.84747 22.1762 1.44293 28.3077 8.6452C34.7403 1.64172 43.115 -1.3387 49.7484 1.85373C58.8354 6.22699 60.0306 17.9592 49.6108 30.3855C48.9097 31.1768 48.2708 31.9011 47.6812 32.5695C40.9578 40.1915 40.6637 40.5249 27.9737 49.5404C27.8309 49.696 27.6878 49.8492 27.5443 50C27.4748 49.9461 27.4056 49.8925 27.3369 49.8392C25.7534 49.0554 24.3768 47.9675 23.2169 46.6346C14.5929 39.8882 13.7159 38.8066 8.05506 31.824Z" transform="translate(164.992 11.7852) scale(1.30946)" fill="#7CC648"/>
<path fill-rule="evenodd" clip-rule="evenodd" d="M11.3055 44.5539C10.5172 43.5839 9.66275 42.5326 8.72501 41.3842C-3.43405 25.6353 -2.82263 7.04308 10.1712 1.46619C19.6137 -2.58645 31.1245 2.02009 39.73 12.1032C48.7582 2.2984 60.5122 -1.87417 69.8222 2.59521C82.576 8.71779 84.2535 25.1429 69.6292 42.5398C68.6452 43.6475 67.7484 44.6616 66.9209 45.5973C57.4847 56.2681 57.0719 56.7349 39.2614 69.3565C39.0611 69.5743 38.8601 69.7888 38.6587 70C38.5612 69.9246 38.4642 69.8496 38.3677 69.775C36.1452 68.6777 34.213 67.1545 32.5849 65.2884C20.4814 55.8436 19.2505 54.3292 11.3055 44.5539Z" transform="translate(11.7852 168.921) scale(1.30946)" fill="#7CC648"/>
</g>
</svg>
